<?xml version="1.0" encoding="UTF-8"?>
<svg width="30px" height="30px" viewBox="0 0 30 30" version="1.1" xmlns="http://www.w3.org/2000/svg" xmlns:xlink="http://www.w3.org/1999/xlink">
    <!-- Generator: sketchtool 61.2 (101010) - https://sketch.com -->
    <title>1C2513C3-7F1B-4CF5-A1FA-08DF6E4229CF@1.00x</title>
    <desc>Created with sketchtool.</desc>
    <defs>
        <polygon id="path-1" points="0 29.874394 0 0.0232761231 29.8517626 0.0232761231 29.8517626 29.874394"></polygon>
    </defs>
    <g id="00-Homepage-" stroke="none" stroke-width="1" fill="none" fill-rule="evenodd">
        <g id="Website-/-Home-" transform="translate(-1078.000000, -6923.000000)">
            <g id="Footer" transform="translate(0.000000, 6740.000000)">
                <g id="Soc-net-icons" transform="translate(1078.000000, 182.000000)">
                    <g id="fb" transform="translate(0.000000, 1.000000)">
                        <g id="Group-3" transform="translate(0.000000, 0.000000)">
                            <mask id="mask-2" fill="white">
                                <use xlink:href="#path-1"></use>
                            </mask>
                            <g id="Clip-2"></g>
                            <path d="M14.9262037,0.625295158 C7.02822972,0.625295158 0.601857852,7.05086111 0.601857852,14.9488351 C0.601857852,22.846809 7.02822972,29.272375 14.9262037,29.272375 C22.8241776,29.272375 29.2497436,22.846809 29.2497436,14.9488351 C29.2497436,7.05086111 22.8241776,0.625295158 14.9262037,0.625295158 M14.9262037,29.874394 C6.69619245,29.874394 -0.000161183142,23.1788463 -0.000161183142,14.9488351 C-0.000161183142,6.71882384 6.69619245,0.0232761231 14.9262037,0.0232761231 C23.1562149,0.0232761231 29.8517626,6.71882384 29.8517626,14.9488351 C29.8517626,23.1788463 23.1562149,29.874394 14.9262037,29.874394" id="Fill-1" fill="#AAAAAA" mask="url(#mask-2)"></path>
                        </g>
                        <path d="M16.2148629,11.5259499 L16.2148629,10.1405808 C16.2148629,9.46522339 16.6653698,9.30806983 16.9812887,9.30806983 L18.9243515,9.30806983 L18.9243515,6.33988227 L16.2479054,6.32859945 C13.2773001,6.32859945 12.6019428,8.5424499 12.6019428,9.96005564 L12.6019428,11.5259499 L10.8837305,11.5259499 L10.8837305,13.618913 L10.8837305,14.9905815 L12.6164492,14.9905815 L12.6164492,23.6525635 L16.0810809,23.6525635 L16.0810809,14.9905815 L18.6527579,14.9905815 L18.7768689,13.6293899 L18.9686769,11.5259499 L16.2148629,11.5259499 Z" id="Fill-4" fill="#AAAAAA"></path>
                    </g>
                </g>
            </g>
        </g>
    </g>
</svg>