<svg width="187" height="161" xmlns="http://www.w3.org/2000/svg"><path d="M141.74-29.51c.4 25.401-13.695 85.077-25.958 112.565-4.819 10.772-12.936 14.261-21.819 15.667-40.39 4.499-141.28-.74-215.435-25.995-11.752-4.401-20.419-10.873-19.267-24.976-1.87 11.826-3.186 23.087-3.873 33.315-1.747 23.088 13.677 43.064 33.445 49.797 77.571 26.35 184.556 32.596 227.877 28.303 19.327-1.346 34.046-12.86 42.058-29.845 16.068-39.037 26.707-90.416 27.985-122.908.32-25.504-11.016-38.896-27.17-48.219-12.101-6.97-20.922-11.689-36.504-18.976 2.924 1.624 16.846 9.073 18.661 31.272z" fill="#6C56EB" fill-rule="nonzero"/></svg>