<?xml version="1.0" encoding="UTF-8"?>
<svg width="31px" height="30px" viewBox="0 0 31 30" version="1.1" xmlns="http://www.w3.org/2000/svg" xmlns:xlink="http://www.w3.org/1999/xlink">
    <!-- Generator: sketchtool 61.2 (101010) - https://sketch.com -->
    <title>0CFA0C88-C104-4877-B107-9D6B7B94EC4B@1.00x</title>
    <desc>Created with sketchtool.</desc>
    <g id="00-Homepage-" stroke="none" stroke-width="1" fill="none" fill-rule="evenodd">
        <g id="Website-/-Home-" transform="translate(-1244.000000, -6923.000000)" fill="#AAAAAA">
            <g id="Footer" transform="translate(0.000000, 6740.000000)">
                <g id="Soc-net-icons" transform="translate(1078.000000, 182.000000)">
                    <g id="ig" transform="translate(166.000000, 1.000000)">
                        <path d="M15.3953724,0.625295158 C7.43318729,0.625295158 0.9545685,7.05086111 0.9545685,14.9488351 C0.9545685,22.846809 7.43318729,29.272375 15.3953724,29.272375 C23.3575575,29.272375 29.8353639,22.846809 29.8353639,14.9488351 C29.8353639,7.05086111 23.3575575,0.625295158 15.3953724,0.625295158 M15.3953724,29.874394 C7.09845053,29.874394 0.347655001,23.1788463 0.347655001,14.9488351 C0.347655001,6.71882384 7.09845053,0.0232761231 15.3953724,0.0232761231 C23.6922943,0.0232761231 30.4422774,6.71882384 30.4422774,14.9488351 C30.4422774,23.1788463 23.6922943,29.874394 15.3953724,29.874394" id="Fill-19"></path>
                        <path d="M22.4261444,20.263285 C22.4261444,21.1788053 21.6746116,21.9234714 20.7516481,21.9234714 L10.0376343,21.9234714 C9.11467079,21.9234714 8.36395048,21.1788053 8.36395048,20.263285 L8.36395048,14.0698228 L8.36395048,13.1712268 L10.9711599,13.1712268 C10.90535,13.3299922 10.8501022,13.4935931 10.8021666,13.6604176 C10.6843587,14.0698228 10.6201738,14.5017936 10.6201738,14.9482709 C10.6201738,17.5602437 12.7618391,19.6854435 15.3950474,19.6854435 C18.0282558,19.6854435 20.1707336,17.5602437 20.1707336,14.9482709 C20.1707336,14.5017936 20.1049237,14.0698228 19.9871158,13.6596117 C19.9391802,13.4935931 19.8831199,13.3299922 19.8181225,13.1712268 L22.4261444,13.1712268 L22.4261444,14.0698228 L22.4261444,20.263285 Z M12.9032085,13.1712268 C13.4629988,12.4031891 14.369713,11.9002977 15.3950474,11.9002977 C16.4211943,11.9002977 17.3279085,12.4031891 17.8876989,13.1712268 C17.9551337,13.2639071 18.0152563,13.3622288 18.0721291,13.4621624 C18.3223692,13.9021923 18.4694258,14.4091133 18.4694258,14.9482709 C18.4694258,16.6294111 17.0890429,17.99705 15.3950474,17.99705 C13.7002395,17.99705 12.320669,16.6294111 12.320669,14.9482709 C12.320669,14.4091133 12.4677257,13.9021923 12.7179658,13.4613564 C12.775651,13.3622288 12.8357736,13.2639071 12.9032085,13.1712268 L12.9032085,13.1712268 Z M21.7201098,8.28415392 L22.1052196,8.28254209 L22.1052196,8.66454613 L22.1052196,11.218493 L19.1567737,11.228164 L19.1462116,8.29221308 L21.7201098,8.28415392 Z M20.7516481,6.28709479 L10.0376343,6.28709479 C8.17627041,6.28709479 6.66345523,7.78851576 6.66345523,9.63406273 L6.66345523,13.1712268 L6.66345523,14.4735866 L6.66345523,20.263285 C6.66345523,22.108832 8.17627041,23.6110589 10.0376343,23.6110589 L20.7516481,23.6110589 C22.613012,23.6110589 24.1274521,22.108832 24.1274521,20.263285 L24.1274521,14.4751984 L24.1274521,13.1712268 L24.1274521,9.63406273 C24.1274521,7.78851576 22.613012,6.28709479 20.7516481,6.28709479 L20.7516481,6.28709479 Z" id="Fill-21"></path>
                    </g>
                </g>
            </g>
        </g>
    </g>
</svg>