<?xml version="1.0" encoding="UTF-8"?>
<svg width="30px" height="30px" viewBox="0 0 30 30" version="1.1" xmlns="http://www.w3.org/2000/svg" xmlns:xlink="http://www.w3.org/1999/xlink">
    <!-- Generator: sketchtool 61.2 (101010) - https://sketch.com -->
    <title>385E67E5-423B-4E7B-89E1-219117EBC4AA@1.00x</title>
    <desc>Created with sketchtool.</desc>
    <g id="00-Homepage-" stroke="none" stroke-width="1" fill="none" fill-rule="evenodd">
        <g id="Website-/-Home-" transform="translate(-1300.000000, -6922.000000)" fill="#AAAAAA">
            <g id="Footer" transform="translate(0.000000, 6740.000000)">
                <g id="Soc-net-icons" transform="translate(1078.000000, 182.000000)">
                    <g id="linkedin" transform="translate(222.000000, 0.000000)">
                        <path d="M14.9263649,0.602019035 C7.0283909,0.602019035 0.602019035,7.02758499 0.602019035,14.9255589 C0.602019035,22.8235329 7.0283909,29.2490988 14.9263649,29.2490988 C22.8243388,29.2490988 29.2499048,22.8235329 29.2499048,14.9255589 C29.2499048,7.02758499 22.8243388,0.602019035 14.9263649,0.602019035 M14.9263649,29.8511179 C6.69635363,29.8511179 0,23.1555702 0,14.9255589 C0,6.69554771 6.69635363,0 14.9263649,0 C23.1563761,0 29.8519238,6.69554771 29.8519238,14.9255589 C29.8519238,23.1555702 23.1563761,29.8511179 14.9263649,29.8511179" id="Fill-19-Copy"></path>
                        <path d="M8.57159866,12.3383596 L11.0566792,12.3383596 L11.0566792,20.9991836 L8.57159866,20.9991836 L8.57159866,12.3383596 Z M9.75079374,11.2550423 L9.73280221,11.2550423 C8.83322554,11.2550423 8.25,10.5929697 8.25,9.75456204 C8.25,8.89901076 8.85046743,8.25 9.76803563,8.25 C10.6848542,8.25 11.2485889,8.89737802 11.2665804,9.75211294 C11.2665804,10.5905206 10.6848542,11.2550423 9.75079374,11.2550423 L9.75079374,11.2550423 Z M21,21 L18.182076,21 L18.182076,16.5173358 C18.182076,15.3442182 17.7412835,14.5441798 16.7719896,14.5441798 C16.0305885,14.5441798 15.6182825,15.0837975 15.4263729,15.6054552 C15.3544067,15.7915867 15.3656515,16.0520073 15.3656515,16.3132443 L15.3656515,21 L12.5739652,21 C12.5739652,21 12.6099483,13.0600269 12.5739652,12.3383596 L15.3656515,12.3383596 L15.3656515,13.6976085 C15.5305739,13.1032943 16.4226541,12.2550903 17.8462341,12.2550903 C19.612403,12.2550903 21,13.5016807 21,16.1834422 L21,21 L21,21 Z" id="path-1" fill-rule="nonzero"></path>
                    </g>
                </g>
            </g>
        </g>
    </g>
</svg>