<svg xmlns="http://www.w3.org/2000/svg" xmlns:xlink="http://www.w3.org/1999/xlink" viewBox="0 0 1000 273"><defs><path id="a" d="M595.8 138.2h-16.9v100.3h-46.2V138.2h-45.5V99.5h128c-8.9 11.5-15.5 24.7-19.4 38.7z"/></defs><clipPath id="b"><use xlink:href="#a" overflow="visible"/></clipPath><path clip-path="url(#b)" d="M459.3 71.6H643v194.8H459.3z"/><defs><path id="c" d="M473.6 138.2h-45.5v100.4H382V138.2h-45.6V99.5h137.2z"/></defs><clipPath id="d"><use xlink:href="#c" overflow="visible"/></clipPath><path clip-path="url(#d)" d="M308.5 71.6h193v194.8h-193z"/><defs><path id="e" d="M255.7 139.4l-20.1 41.3h40.6l-20.5-41.3zm98.8 99.2h-49.1l-12-23.6h-74.7l-11.3 23.6h-49.3L229 99.5h53.5l72 139.1z"/></defs><clipPath id="f"><use xlink:href="#e" overflow="visible"/></clipPath><path clip-path="url(#f)" d="M130.2 71.6h252.1v194.8H130.2z"/><g><defs><path id="g" d="M145.5 238.6H20.4c-8.7-.2-16.4-5.9-19.3-14.1-2.9-8.3-.3-17.4 6.5-23l1-.8 83-63.5H13.2V99.5h131.3c9 0 17 5.9 19.8 14.4 2.8 8.6-.2 18-7.5 23.4l-83 63.7h71.6v37.6z"/></defs><clipPath id="h"><use xlink:href="#g" overflow="visible"/></clipPath><path clip-path="url(#h)" d="M-27.9 71.6h221.1v194.8H-27.9z"/></g><g><defs><path id="i" d="M866.7 98.5c29.1-1.8 58.2-1.8 87.3 0 23.2 2.1 41.6 16.7 44.3 35.6 2.3 23.2 2.3 46.5 0 69.7-2.7 18.8-21.1 33.4-44.3 35.6-29.1 1.8-58.2 1.8-87.3 0-13.4-.9-26-6.8-35.3-16.5 9.4-16.9 14.3-35.8 14.3-55.1 0-18.7-4.7-37.1-13.7-53.5 9.3-9.3 21.6-15 34.7-15.9v.1zm1.1 92.4c1 6.7 7.4 12 15.9 12.9 17.7 1.3 35.5 1.3 53.3 0 8.4-.8 14.9-6.3 15.9-12.9 1.5-14.5 1.5-29 0-43.5-1-6.7-7.5-12.1-15.9-12.9-17.7-1.3-35.5-1.3-53.3 0-8.4.8-14.9 6.3-15.9 12.9-1.6 14.4-1.6 29 0 43.5z"/></defs><clipPath id="j"><use xlink:href="#i" overflow="visible"/></clipPath><path clip-path="url(#j)" d="M803.6 69.3h224.3v199.4H803.6z"/></g><g><defs><path id="k" d="M670.2 244.4c-29.6-15.7-48.2-44.8-48.2-76.6 0-48.8 43.3-88.5 96.5-88.5 39 0 74.4 22.1 89.2 54.6h-23.8c-2.6-5.1-7.6-8.1-14.9-9-5-.4-10.2-.7-15.7-.7-33.4 0-69 7.9-83.6 13.4-6.3 2.3-10.8 7.8-11.8 14.4-2.3 13.6-2.2 43.2 1 55.9v.4c1.7 6 5.7 11.1 11.1 14.2l.2 21.9z"/></defs><clipPath id="l"><use xlink:href="#k" overflow="visible"/></clipPath><path clip-path="url(#l)" fill="#ffdbbb" d="M594.1 51.4h241.4v220.9H594.1z"/></g><g><defs><path id="m" d="M776.8 204.3c-2.9 13.4-8.6 18.5-23 19.6-25.9 1.2-51.8-.7-77.2-5.7-7.5-1.5-11.8-2.6-17.9-4.4-8.9-2.2-15.6-9.5-17-18.5-3.3-19.2-3.7-38.7-1.2-58 1.2-8.3 7-15.3 15-18 18.3-6.7 65.3-15.9 101.7-12.7 10 1 18.2 8.6 19.9 18.5.8 4.6 1.4 9.8 1.9 15.3 2.1 21.3 1.3 42.8-2.2 63.9zm-46-141.4l42.4-54.2c.6-.8.9-1.9.8-2.9-.1-1-.7-2-1.5-2.6L769.2.5c-.8-.6-1.9-.9-2.9-.8-1 .1-2 .7-2.6 1.5l-48 61.1c-4.4.1-8.8.4-13.2 1l-33.7-42c-.6-.8-1.6-1.3-2.6-1.5-1-.1-2.1.2-2.9.9l-3.3 2.7c-.8.6-1.3 1.6-1.5 2.6-.1 1 .2 2.1.9 2.9L689 65.7c-48.9 12-84.9 53.1-84.9 102 0 58.3 51.2 105.5 114.4 105.5S832.9 226 832.9 167.7c0-54.3-44.7-99.1-102.1-104.8z"/></defs><clipPath id="n"><use xlink:href="#m" overflow="visible"/></clipPath><path clip-path="url(#n)" fill="#f96522" d="M576.2-28.1h284.6v329.2H576.2z"/></g></svg>