<?xml version="1.0" standalone="no"?>
<!DOCTYPE svg PUBLIC "-//W3C//DTD SVG 20010904//EN"
 "http://www.w3.org/TR/2001/REC-SVG-20010904/DTD/svg10.dtd">
<svg version="1.0" xmlns="http://www.w3.org/2000/svg"
 width="512.000000pt" height="512.000000pt" viewBox="0 0 512.000000 512.000000"
 preserveAspectRatio="xMidYMid meet">
<metadata>
Created by potrace 1.11, written by Peter Selinger 2001-2013
</metadata>
<g transform="translate(0.000000,512.000000) scale(0.100000,-0.100000)"
fill="#000000" stroke="none">
<path d="M3359 5107 c-8 -7 -91 -109 -184 -227 -92 -118 -191 -244 -220 -280
-28 -36 -76 -96 -106 -135 -30 -38 -62 -79 -71 -90 -22 -27 -130 -164 -203
-259 -33 -43 -73 -93 -90 -111 -32 -35 -36 -36 -239 -48 -27 -2 -53 27 -339
383 -170 212 -319 391 -332 399 -32 20 -68 7 -121 -41 -68 -63 -66 -69 92
-265 75 -92 148 -184 164 -203 178 -221 250 -312 250 -319 0 -4 -24 -13 -52
-20 -29 -7 -102 -31 -163 -53 -318 -117 -557 -269 -785 -498 -271 -272 -445
-601 -521 -983 -32 -159 -33 -443 -3 -627 91 -564 482 -1086 1026 -1375 233
-123 516 -213 753 -240 28 -3 70 -8 95 -11 62 -9 309 -9 400 0 613 57 1169
355 1520 816 297 391 430 879 366 1353 -53 393 -244 773 -536 1066 -338 339
-765 546 -1274 616 -22 3 -41 7 -42 8 -2 2 210 275 378 488 15 19 71 91 125
160 54 69 110 141 125 160 131 165 158 204 158 228 -1 31 -22 58 -75 94 -43
29 -71 33 -96 14z m110 -2292 c19 -4 55 -14 80 -24 50 -18 54 -26 66 -153 4
-37 8 -80 10 -95 21 -177 21 -698 0 -834 -2 -13 -6 -53 -10 -89 -7 -75 -12
-114 -31 -237 -9 -66 -46 -166 -80 -219 -64 -102 -186 -156 -369 -164 -193 -8
-695 2 -745 15 -8 2 -53 6 -100 10 -47 3 -94 8 -105 10 -11 2 -42 7 -70 10
-27 3 -93 13 -145 21 -52 8 -111 17 -130 20 -101 16 -335 71 -361 85 -71 37
-112 297 -111 704 0 223 11 372 36 481 17 78 94 172 173 212 69 36 347 116
503 146 14 3 36 7 50 10 159 35 492 81 665 92 55 4 102 8 104 10 7 7 534 -4
570 -11z"/>
</g>
</svg>
