<?xml version="1.0" encoding="UTF-8"?>
<svg width="31px" height="30px" viewBox="0 0 31 30" version="1.1" xmlns="http://www.w3.org/2000/svg" xmlns:xlink="http://www.w3.org/1999/xlink">
    <!-- Generator: sketchtool 61.2 (101010) - https://sketch.com -->
    <title>56F90DF6-6830-4109-B288-200F934B6B4C@1.00x</title>
    <desc>Created with sketchtool.</desc>
    <g id="00-Homepage-" stroke="none" stroke-width="1" fill="none" fill-rule="evenodd">
        <g id="Website-/-Home-" transform="translate(-1133.000000, -6923.000000)" fill="#AAAAAA">
            <g id="Footer" transform="translate(0.000000, 6740.000000)">
                <g id="Soc-net-icons" transform="translate(1078.000000, 182.000000)">
                    <g id="tw" transform="translate(55.000000, 1.000000)">
                        <path d="M15.3380934,0.625295158 C7.37590831,0.625295158 0.897289515,7.05086111 0.897289515,14.9488351 C0.897289515,22.846809 7.37590831,29.272375 15.3380934,29.272375 C23.3002786,29.272375 29.7772724,22.846809 29.7772724,14.9488351 C29.7772724,7.05086111 23.3002786,0.625295158 15.3380934,0.625295158 M15.3380934,29.874394 C7.04117154,29.874394 0.290376017,23.1788463 0.290376017,14.9488351 C0.290376017,6.71882384 7.04117154,0.0232761231 15.3380934,0.0232761231 C23.6342028,0.0232761231 30.3841859,6.71882384 30.3841859,14.9488351 C30.3841859,23.1788463 23.6342028,29.874394 15.3380934,29.874394" id="Fill-24"></path>
                        <path d="M24.0700106,10.4872051 C23.428161,10.7660519 22.7375633,10.9530244 22.012842,11.0376455 C22.7530002,10.6048688 23.3201028,9.91903453 23.5882172,9.10103008 C22.896807,9.50318202 22.1282124,9.79411759 21.3124947,9.95127115 C20.6592705,9.2710783 19.7281823,8.84636072 18.6979731,8.84636072 C16.7188013,8.84636072 15.1149898,10.4130609 15.1149898,12.3448408 C15.1149898,12.6196581 15.146676,12.8856103 15.2067986,13.1426974 C12.2291039,12.9968266 9.5885833,11.6033984 7.82227815,9.48625779 C7.51435283,10.0028498 7.33642237,10.6048688 7.33642237,11.2455718 C7.33642237,12.4584749 7.97014731,13.5295369 8.93048433,14.1573452 C8.34388253,14.1388092 7.79059191,13.9816556 7.30717353,13.719733 L7.30717353,13.7632525 C7.30717353,14.2113416 7.39573252,14.6384769 7.55253882,15.0317638 C7.990459,16.1286151 8.97598253,16.9579023 10.1824973,17.1956475 C9.88107174,17.2746272 9.56502173,17.3181467 9.23759718,17.3181467 C9.00685631,17.3181467 8.78261518,17.2963869 8.56324885,17.2544793 C9.02066826,18.643878 10.343366,19.6561081 11.9106165,19.6843152 C10.68379,20.623207 9.14010104,21.1825125 7.45991748,21.1825125 C7.17067892,21.1825125 6.88631517,21.1655882 6.60438882,21.1333516 C8.19195104,22.1262398 10.076064,22.7056932 12.0974841,22.7056932 C17.69945,22.7056932 21.1410639,18.8558338 22.049403,14.8625215 C22.2102717,14.1573452 22.2931434,13.4465276 22.2931434,12.7510223 C22.2931434,12.6003161 22.2898935,12.447998 22.2833938,12.2980977 C22.9829286,11.8048773 23.5906546,11.1891577 24.0700106,10.4872051" id="Fill-26"></path>
                    </g>
                </g>
            </g>
        </g>
    </g>
</svg>