<?xml version="1.0" encoding="UTF-8"?>
<svg width="30px" height="30px" viewBox="0 0 30 30" version="1.1" xmlns="http://www.w3.org/2000/svg" xmlns:xlink="http://www.w3.org/1999/xlink">
    <!-- Generator: sketchtool 61.2 (101010) - https://sketch.com -->
    <title>8548FDBF-B8CF-499E-90AB-5C651FFE8580@1.00x</title>
    <desc>Created with sketchtool.</desc>
    <g id="00-Homepage-" stroke="none" stroke-width="1" fill="none" fill-rule="evenodd">
        <g id="Website-/-Home-" transform="translate(-1189.000000, -6923.000000)" fill="#AAAAAA">
            <g id="Footer" transform="translate(0.000000, 6740.000000)">
                <g id="Soc-net-icons" transform="translate(1078.000000, 182.000000)">
                    <g id="yt" transform="translate(111.000000, 1.000000)">
                        <path d="M14.9832625,0.625295158 C7.08528855,0.625295158 0.6597226,7.05086111 0.6597226,14.9488351 C0.6597226,22.846809 7.08528855,29.272375 14.9832625,29.272375 C22.8812365,29.272375 29.3068024,22.846809 29.3068024,14.9488351 C29.3068024,7.05086111 22.8812365,0.625295158 14.9832625,0.625295158 M14.9832625,29.874394 C6.75325128,29.874394 0.0577035648,23.1788463 0.0577035648,14.9488351 C0.0577035648,6.71882384 6.75325128,0.0232761231 14.9832625,0.0232761231 C23.2132737,0.0232761231 29.9088214,6.71882384 29.9088214,14.9488351 C29.9088214,23.1788463 23.2132737,29.874394 14.9832625,29.874394" id="Fill-14"></path>
                        <path d="M17.8740822,14.8056238 L13.1957415,17.3337814 L13.1941296,13.4420145 L13.1941296,12.2589302 L15.304017,13.4073601 L17.8740822,14.8056238 Z M23.4711668,11.3780643 C23.4711668,11.3780643 23.3019245,10.1329246 22.7837207,9.58490187 C22.1244816,8.86683098 21.3862628,8.86199548 21.0485841,8.82008787 C18.6227778,8.63875683 14.9872921,8.63875683 14.9872921,8.63875683 L14.9792329,8.63875683 C14.9792329,8.63875683 11.3421353,8.63875683 8.91874679,8.82089378 C8.58026219,8.86199548 7.84284932,8.86683098 7.18280435,9.58570779 C6.66460055,10.1337305 6.49535825,11.3788702 6.49535825,11.3788702 C6.49535825,11.3788702 6.32128046,12.8399954 6.32128046,14.3027324 L6.32128046,14.4784221 L6.32128046,15.6719832 C6.32128046,17.1347202 6.49535825,18.5966513 6.49535825,18.5966513 C6.49535825,18.5966513 6.66460055,19.8409852 7.18280435,20.3890079 C7.84284932,21.1086906 8.7092087,21.085319 9.0936305,21.1602692 C10.4798055,21.2988867 14.9832625,21.3424062 14.9832625,21.3424062 C14.9832625,21.3424062 18.6227778,21.3359588 21.0485841,21.1538219 C21.3862628,21.1119143 22.1244816,21.1086906 22.7837207,20.388202 C23.3019245,19.8409852 23.4711668,18.5958454 23.4711668,18.5958454 C23.4711668,18.5958454 23.6452445,17.1347202 23.6452445,15.6719832 L23.6452445,14.5541781 L23.6452445,14.3027324 C23.6452445,12.8399954 23.4711668,11.3780643 23.4711668,11.3780643 L23.4711668,11.3780643 Z" id="Fill-16"></path>
                    </g>
                </g>
            </g>
        </g>
    </g>
</svg>