<svg width="84" height="95" xmlns="http://www.w3.org/2000/svg" xmlns:xlink="http://www.w3.org/1999/xlink"><defs><path id="a" d="M0 0h105v105H0z"/></defs><g transform="translate(-21)" fill="none" fill-rule="evenodd"><mask id="b" fill="#fff"><use xlink:href="#a"/></mask><path d="M68.455 69.734a16.731 16.731 0 0 1 1.603-13.507 16.723 16.723 0 0 1 11.102-7.855l23.52-4.024a.263.263 0 0 0 .08-.491L-41.412-33.23a.263.263 0 0 1-.11-.355l14.468-27.432a.263.263 0 0 1 .355-.11l186.884 98.556c8.13 4.303 11.226 14.396 6.916 22.545a16.803 16.803 0 0 1-12.181 8.73l-22.826 3.93a.263.263 0 0 0-.08.491l172.119 90.77a.268.268 0 0 1 .107.36l-14.462 27.424a.267.267 0 0 1-.36.108L76.197 79.34a16.537 16.537 0 0 1-7.742-9.606z" fill="#00B7B3" fill-rule="nonzero" mask="url(#b)"/></g></svg>